# xmcd
#
# Track frame offsets: 
#        150
#        22492
#        37530
#        58265
#        77029
#        98588
#
# Disc length: 1590 seconds
#
# Revision: 0
# Processed by: cddbd v1.5.2PL0 Copyright (c) Steve Scherf et al.
# Submitted via: ExactAudioCopy v0.99pb5
#
DISCID=42063406
DTITLE=Glory Hunter - Walls Of Silence
DYEAR=1993
DGENRE=Heavy Metal
TTITLE0=Park Chaos
TTITLE1=I Will Survive
TTITLE2=Social Domain
TTITLE3=Walls Of Silence
TTITLE4=Difference
TTITLE5=Keep On Shining
EXTD=
EXTT0=
EXTT1=
EXTT2=
EXTT3=
EXTT4=
EXTT5=
PLAYORDER=
